# xmcd
#
# Track frame offsets:
# 150
# 13065
# 25922
# 38162
# 54305
# 66535
# 79504
# 91643
# 104857
# 121599
# 133338
# 147226
# 161302
# 174561
# 186756
# 198803
# 208600
# 223438
# 236117
# 248416
# 260526
# 273135
# 286239
# 296779
# 309298
# 322124
#
# Disc length: 4451 seconds
#
# Revision: 1
# Processed by: cddbd v1.5.1PL2 Copyright (c) Steve Scherf et al.
# Submitted via: Axialis_AX_CDPlayer 2.6
#
DISCID=7f11611a
DTITLE=Grandpa Jones - Steppin' Out Kind (w/ complete track list)
DYEAR=2006
DGENRE=Country
TTITLE0=It's Raining here This Morning
TTITLE1=I'll Be Around If You Need Me
TTITLE2=Grandpa's Boogie
TTITLE3=Heart Stealin' Mama
TTITLE4=Eight More Miles To Louisville
TTITLE5=Alimony Trouble
TTITLE6=Five String Banjo Boogie
TTITLE7=Ridin' On That Train
TTITLE8=Darby's Ram (with the Delmore Brothers)
TTITLE9=Take It On Out The Door (with the Delmore Brothers)
TTITLE10=The Feudun' Boogie (with Cowboy Copas)
TTITLE11=Mule Train (with Cowboy Copas)
TTITLE12=Move It On Over
TTITLE13=What'll I Do With The Baby-O
TTITLE14=Steppin' Out Kind
TTITLE15=Don't Sweet Talk Me
TTITLE16=Send In Your Name And Address
TTITLE17=That Depot In The Sky
TTITLE18=Old Rattler
TTITLE19=You'll Make Your Shack A Mansion
TTITLE20=Get Back On The Glory Road
TTITLE21=There's A Grave In The Waves Of The Ocean
TTITLE22=Maybe You Will Miss Me When I'm Gone
TTITLE23=There's A Hole In The Ground
TTITLE24=When Mussolini Laid His Pistol Down
TTITLE25=Two-Time Annie
EXTD=
EXTT0=
EXTT1=
EXTT2=
EXTT3=
EXTT4=
EXTT5=
EXTT6=
EXTT7=
EXTT8=
EXTT9=
EXTT10=
EXTT11=
EXTT12=
EXTT13=
EXTT14=
EXTT15=
EXTT16=
EXTT17=
EXTT18=
EXTT19=
EXTT20=
EXTT21=
EXTT22=
EXTT23=
EXTT24=
EXTT25=
PLAYORDER=
